<svg xmlns="http://www.w3.org/2000/svg" version="1.1" xmlns:xlink="http://www.w3.org/1999/xlink" xmlns:svgjs="http://svgjs.dev/svgjs" width="1440" height="560" preserveAspectRatio="none" viewBox="0 0 1440 560"><g mask="url(&quot;#SvgjsMask1012&quot;)" fill="none"><rect width="1440" height="560" x="0" y="0" fill="rgba(16, 52, 68, 1)"></rect><path d="M-85.87 362.91L-85.87 362.91" stroke="rgba(146, 176, 191, 1)" stroke-width="1.5"></path><path d="M-85.87 362.91L64.85 372.05" stroke="rgba(146, 176, 191, 1)" stroke-width="1.5"></path><path d="M-85.87 362.91L-48.45 546.88" stroke="rgba(146, 176, 191, 1)" stroke-width="1.5"></path><path d="M-85.87 362.91L-91.77 657.16" stroke="rgba(146, 176, 191, 1)" stroke-width="1.5"></path><path d="M-48.45 546.88L-48.45 546.88" stroke="rgba(146, 176, 191, 1)" stroke-width="1.5"></path><path d="M-48.45 546.88L-91.77 657.16" stroke="rgba(146, 176, 191, 1)" stroke-width="1.5"></path><path d="M-48.45 546.88L64.85 372.05" stroke="rgba(146, 176, 191, 1)" stroke-width="1.5"></path><path d="M-48.45 546.88L111.28 703.27" stroke="rgba(146, 176, 191, 1)" stroke-width="1.5"></path><path d="M-48.45 546.88L234.84 500.07" stroke="rgba(146, 176, 191, 1)" stroke-width="1.5"></path><path d="M-48.45 546.88L239.77 658.76" stroke="rgba(146, 176, 191, 1)" stroke-width="1.5"></path><path d="M-91.77 657.16L-91.77 657.16" stroke="rgba(146, 176, 191, 1)" stroke-width="1.5"></path><path d="M-91.77 657.16L111.28 703.27" stroke="rgba(146, 176, 191, 1)" stroke-width="1.5"></path><path d="M64.85 372.05L64.85 372.05" stroke="rgba(146, 176, 191, 1)" stroke-width="1.5"></path><path d="M64.85 372.05L219.15 379.37" stroke="rgba(146, 176, 191, 1)" stroke-width="1.5"></path><path d="M64.85 372.05L234.84 500.07" stroke="rgba(146, 176, 191, 1)" stroke-width="1.5"></path><path d="M64.85 372.05L338.39 495.88" stroke="rgba(146, 176, 191, 1)" stroke-width="1.5"></path><path d="M64.85 372.05L-91.77 657.16" stroke="rgba(146, 176, 191, 1)" stroke-width="1.5"></path><path d="M111.28 703.27L111.28 703.27" stroke="rgba(146, 176, 191, 1)" stroke-width="1.5"></path><path d="M111.28 703.27L239.77 658.76" stroke="rgba(146, 176, 191, 1)" stroke-width="1.5"></path><path d="M219.15 379.37L219.15 379.37" stroke="rgba(146, 176, 191, 1)" stroke-width="1.5"></path><path d="M219.15 379.37L234.84 500.07" stroke="rgba(146, 176, 191, 1)" stroke-width="1.5"></path><path d="M219.15 379.37L338.39 495.88" stroke="rgba(146, 176, 191, 1)" stroke-width="1.5"></path><path d="M219.15 379.37L393.59 407.89" stroke="rgba(146, 176, 191, 1)" stroke-width="1.5"></path><path d="M234.84 500.07L234.84 500.07" stroke="rgba(146, 176, 191, 1)" stroke-width="1.5"></path><path d="M234.84 500.07L338.39 495.88" stroke="rgba(146, 176, 191, 1)" stroke-width="1.5"></path><path d="M239.77 658.76L239.77 658.76" stroke="rgba(146, 176, 191, 1)" stroke-width="1.5"></path><path d="M239.77 658.76L367.14 658.69" stroke="rgba(146, 176, 191, 1)" stroke-width="1.5"></path><path d="M393.59 407.89L393.59 407.89" stroke="rgba(146, 176, 191, 1)" stroke-width="1.5"></path><path d="M393.59 407.89L490.95 390.11" stroke="rgba(146, 176, 191, 1)" stroke-width="1.5"></path><path d="M338.39 495.88L338.39 495.88" stroke="rgba(146, 176, 191, 1)" stroke-width="1.5"></path><path d="M338.39 495.88L393.59 407.89" stroke="rgba(146, 176, 191, 1)" stroke-width="1.5"></path><path d="M338.39 495.88L367.14 658.69" stroke="rgba(146, 176, 191, 1)" stroke-width="1.5"></path><path d="M367.14 658.69L367.14 658.69" stroke="rgba(146, 176, 191, 1)" stroke-width="1.5"></path><path d="M367.14 658.69L534 638.41" stroke="rgba(146, 176, 191, 1)" stroke-width="1.5"></path><path d="M367.14 658.69L234.84 500.07" stroke="rgba(146, 176, 191, 1)" stroke-width="1.5"></path><path d="M490.95 390.11L490.95 390.11" stroke="rgba(146, 176, 191, 1)" stroke-width="1.5"></path><path d="M490.95 390.11L556 542.49" stroke="rgba(146, 176, 191, 1)" stroke-width="1.5"></path><path d="M490.95 390.11L662.66 377.09" stroke="rgba(146, 176, 191, 1)" stroke-width="1.5"></path><path d="M490.95 390.11L338.39 495.88" stroke="rgba(146, 176, 191, 1)" stroke-width="1.5"></path><path d="M556 542.49L556 542.49" stroke="rgba(146, 176, 191, 1)" stroke-width="1.5"></path><path d="M556 542.49L534 638.41" stroke="rgba(146, 176, 191, 1)" stroke-width="1.5"></path><path d="M556 542.49L712.19 513.93" stroke="rgba(146, 176, 191, 1)" stroke-width="1.5"></path><path d="M556 542.49L662.66 377.09" stroke="rgba(146, 176, 191, 1)" stroke-width="1.5"></path><path d="M534 638.41L534 638.41" stroke="rgba(146, 176, 191, 1)" stroke-width="1.5"></path><path d="M534 638.41L703.61 709.23" stroke="rgba(146, 176, 191, 1)" stroke-width="1.5"></path><path d="M681.13 242.68L681.13 242.68" stroke="rgba(146, 176, 191, 1)" stroke-width="1.5"></path><path d="M681.13 242.68L662.66 377.09" stroke="rgba(146, 176, 191, 1)" stroke-width="1.5"></path><path d="M681.13 242.68L851.28 206.13" stroke="rgba(146, 176, 191, 1)" stroke-width="1.5"></path><path d="M681.13 242.68L829.09 375.38" stroke="rgba(146, 176, 191, 1)" stroke-width="1.5"></path><path d="M681.13 242.68L490.95 390.11" stroke="rgba(146, 176, 191, 1)" stroke-width="1.5"></path><path d="M662.66 377.09L662.66 377.09" stroke="rgba(146, 176, 191, 1)" stroke-width="1.5"></path><path d="M662.66 377.09L712.19 513.93" stroke="rgba(146, 176, 191, 1)" stroke-width="1.5"></path><path d="M662.66 377.09L829.09 375.38" stroke="rgba(146, 176, 191, 1)" stroke-width="1.5"></path><path d="M662.66 377.09L824.9 530.53" stroke="rgba(146, 176, 191, 1)" stroke-width="1.5"></path><path d="M712.19 513.93L712.19 513.93" stroke="rgba(146, 176, 191, 1)" stroke-width="1.5"></path><path d="M712.19 513.93L824.9 530.53" stroke="rgba(146, 176, 191, 1)" stroke-width="1.5"></path><path d="M712.19 513.93L795.59 670.33" stroke="rgba(146, 176, 191, 1)" stroke-width="1.5"></path><path d="M703.61 709.23L703.61 709.23" stroke="rgba(146, 176, 191, 1)" stroke-width="1.5"></path><path d="M703.61 709.23L795.59 670.33" stroke="rgba(146, 176, 191, 1)" stroke-width="1.5"></path><path d="M703.61 709.23L712.19 513.93" stroke="rgba(146, 176, 191, 1)" stroke-width="1.5"></path><path d="M703.61 709.23L824.9 530.53" stroke="rgba(146, 176, 191, 1)" stroke-width="1.5"></path><path d="M703.61 709.23L556 542.49" stroke="rgba(146, 176, 191, 1)" stroke-width="1.5"></path><path d="M703.61 709.23L945.78 711.97" stroke="rgba(146, 176, 191, 1)" stroke-width="1.5"></path><path d="M851.28 206.13L851.28 206.13" stroke="rgba(146, 176, 191, 1)" stroke-width="1.5"></path><path d="M851.28 206.13L981.16 191.17" stroke="rgba(146, 176, 191, 1)" stroke-width="1.5"></path><path d="M851.28 206.13L829.09 375.38" stroke="rgba(146, 176, 191, 1)" stroke-width="1.5"></path><path d="M851.28 206.13L972.38 70.44" stroke="rgba(146, 176, 191, 1)" stroke-width="1.5"></path><path d="M851.28 206.13L975.72 381.3" stroke="rgba(146, 176, 191, 1)" stroke-width="1.5"></path><path d="M829.09 375.38L829.09 375.38" stroke="rgba(146, 176, 191, 1)" stroke-width="1.5"></path><path d="M829.09 375.38L975.72 381.3" stroke="rgba(146, 176, 191, 1)" stroke-width="1.5"></path><path d="M829.09 375.38L824.9 530.53" stroke="rgba(146, 176, 191, 1)" stroke-width="1.5"></path><path d="M829.09 375.38L712.19 513.93" stroke="rgba(146, 176, 191, 1)" stroke-width="1.5"></path><path d="M824.9 530.53L824.9 530.53" stroke="rgba(146, 176, 191, 1)" stroke-width="1.5"></path><path d="M824.9 530.53L795.59 670.33" stroke="rgba(146, 176, 191, 1)" stroke-width="1.5"></path><path d="M824.9 530.53L975.72 381.3" stroke="rgba(146, 176, 191, 1)" stroke-width="1.5"></path><path d="M795.59 670.33L795.59 670.33" stroke="rgba(146, 176, 191, 1)" stroke-width="1.5"></path><path d="M795.59 670.33L945.78 711.97" stroke="rgba(146, 176, 191, 1)" stroke-width="1.5"></path><path d="M945.9 -83.15L945.9 -83.15" stroke="rgba(146, 176, 191, 1)" stroke-width="1.5"></path><path d="M945.9 -83.15L972.38 70.44" stroke="rgba(146, 176, 191, 1)" stroke-width="1.5"></path><path d="M945.9 -83.15L1125.87 -68.2" stroke="rgba(146, 176, 191, 1)" stroke-width="1.5"></path><path d="M972.38 70.44L972.38 70.44" stroke="rgba(146, 176, 191, 1)" stroke-width="1.5"></path><path d="M972.38 70.44L981.16 191.17" stroke="rgba(146, 176, 191, 1)" stroke-width="1.5"></path><path d="M981.16 191.17L981.16 191.17" stroke="rgba(146, 176, 191, 1)" stroke-width="1.5"></path><path d="M981.16 191.17L975.72 381.3" stroke="rgba(146, 176, 191, 1)" stroke-width="1.5"></path><path d="M981.16 191.17L1160.67 62.75" stroke="rgba(146, 176, 191, 1)" stroke-width="1.5"></path><path d="M981.16 191.17L1138.34 355.6" stroke="rgba(146, 176, 191, 1)" stroke-width="1.5"></path><path d="M975.72 381.3L975.72 381.3" stroke="rgba(146, 176, 191, 1)" stroke-width="1.5"></path><path d="M945.78 711.97L945.78 711.97" stroke="rgba(146, 176, 191, 1)" stroke-width="1.5"></path><path d="M945.78 711.97L1161.49 697.71" stroke="rgba(146, 176, 191, 1)" stroke-width="1.5"></path><path d="M945.78 711.97L824.9 530.53" stroke="rgba(146, 176, 191, 1)" stroke-width="1.5"></path><path d="M1125.87 -68.2L1125.87 -68.2" stroke="rgba(146, 176, 191, 1)" stroke-width="1.5"></path><path d="M1125.87 -68.2L1160.67 62.75" stroke="rgba(146, 176, 191, 1)" stroke-width="1.5"></path><path d="M1125.87 -68.2L1304.71 -94.47" stroke="rgba(146, 176, 191, 1)" stroke-width="1.5"></path><path d="M1125.87 -68.2L1237.7 100.79" stroke="rgba(146, 176, 191, 1)" stroke-width="1.5"></path><path d="M1125.87 -68.2L972.38 70.44" stroke="rgba(146, 176, 191, 1)" stroke-width="1.5"></path><path d="M1125.87 -68.2L1415.18 -106.93" stroke="rgba(146, 176, 191, 1)" stroke-width="1.5"></path><path d="M1160.67 62.75L1160.67 62.75" stroke="rgba(146, 176, 191, 1)" stroke-width="1.5"></path><path d="M1160.67 62.75L1237.7 100.79" stroke="rgba(146, 176, 191, 1)" stroke-width="1.5"></path><path d="M1160.67 62.75L972.38 70.44" stroke="rgba(146, 176, 191, 1)" stroke-width="1.5"></path><path d="M1160.67 62.75L1286.64 214" stroke="rgba(146, 176, 191, 1)" stroke-width="1.5"></path><path d="M1160.67 62.75L1304.71 -94.47" stroke="rgba(146, 176, 191, 1)" stroke-width="1.5"></path><path d="M1138.34 355.6L1138.34 355.6" stroke="rgba(146, 176, 191, 1)" stroke-width="1.5"></path><path d="M1138.34 355.6L1293.79 406.56" stroke="rgba(146, 176, 191, 1)" stroke-width="1.5"></path><path d="M1138.34 355.6L975.72 381.3" stroke="rgba(146, 176, 191, 1)" stroke-width="1.5"></path><path d="M1138.34 355.6L1155.08 524.01" stroke="rgba(146, 176, 191, 1)" stroke-width="1.5"></path><path d="M1138.34 355.6L1286.64 214" stroke="rgba(146, 176, 191, 1)" stroke-width="1.5"></path><path d="M1138.34 355.6L1271.43 532.02" stroke="rgba(146, 176, 191, 1)" stroke-width="1.5"></path><path d="M1155.08 524.01L1155.08 524.01" stroke="rgba(146, 176, 191, 1)" stroke-width="1.5"></path><path d="M1155.08 524.01L1271.43 532.02" stroke="rgba(146, 176, 191, 1)" stroke-width="1.5"></path><path d="M1155.08 524.01L1161.49 697.71" stroke="rgba(146, 176, 191, 1)" stroke-width="1.5"></path><path d="M1155.08 524.01L1293.79 406.56" stroke="rgba(146, 176, 191, 1)" stroke-width="1.5"></path><path d="M1155.08 524.01L1292.43 706.66" stroke="rgba(146, 176, 191, 1)" stroke-width="1.5"></path><path d="M1155.08 524.01L975.72 381.3" stroke="rgba(146, 176, 191, 1)" stroke-width="1.5"></path><path d="M1161.49 697.71L1161.49 697.71" stroke="rgba(146, 176, 191, 1)" stroke-width="1.5"></path><path d="M1161.49 697.71L1292.43 706.66" stroke="rgba(146, 176, 191, 1)" stroke-width="1.5"></path><path d="M1161.49 697.71L1271.43 532.02" stroke="rgba(146, 176, 191, 1)" stroke-width="1.5"></path><path d="M1304.71 -94.47L1304.71 -94.47" stroke="rgba(146, 176, 191, 1)" stroke-width="1.5"></path><path d="M1304.71 -94.47L1415.18 -106.93" stroke="rgba(146, 176, 191, 1)" stroke-width="1.5"></path><path d="M1237.7 100.79L1237.7 100.79" stroke="rgba(146, 176, 191, 1)" stroke-width="1.5"></path><path d="M1237.7 100.79L1286.64 214" stroke="rgba(146, 176, 191, 1)" stroke-width="1.5"></path><path d="M1286.64 214L1286.64 214" stroke="rgba(146, 176, 191, 1)" stroke-width="1.5"></path><path d="M1286.64 214L1406.11 205.51" stroke="rgba(146, 176, 191, 1)" stroke-width="1.5"></path><path d="M1286.64 214L1293.79 406.56" stroke="rgba(146, 176, 191, 1)" stroke-width="1.5"></path><path d="M1293.79 406.56L1293.79 406.56" stroke="rgba(146, 176, 191, 1)" stroke-width="1.5"></path><path d="M1293.79 406.56L1271.43 532.02" stroke="rgba(146, 176, 191, 1)" stroke-width="1.5"></path><path d="M1293.79 406.56L1448.31 389.54" stroke="rgba(146, 176, 191, 1)" stroke-width="1.5"></path><path d="M1271.43 532.02L1271.43 532.02" stroke="rgba(146, 176, 191, 1)" stroke-width="1.5"></path><path d="M1271.43 532.02L1292.43 706.66" stroke="rgba(146, 176, 191, 1)" stroke-width="1.5"></path><path d="M1271.43 532.02L1460.13 525.7" stroke="rgba(146, 176, 191, 1)" stroke-width="1.5"></path><path d="M1292.43 706.66L1292.43 706.66" stroke="rgba(146, 176, 191, 1)" stroke-width="1.5"></path><path d="M1292.43 706.66L1405.09 710.95" stroke="rgba(146, 176, 191, 1)" stroke-width="1.5"></path><path d="M1415.18 -106.93L1415.18 -106.93" stroke="rgba(146, 176, 191, 1)" stroke-width="1.5"></path><path d="M1415.18 -106.93L1554.16 -83.63" stroke="rgba(146, 176, 191, 1)" stroke-width="1.5"></path><path d="M1415.18 -106.93L1443.35 94.33" stroke="rgba(146, 176, 191, 1)" stroke-width="1.5"></path><path d="M1415.18 -106.93L1589.56 80.15" stroke="rgba(146, 176, 191, 1)" stroke-width="1.5"></path><path d="M1415.18 -106.93L1237.7 100.79" stroke="rgba(146, 176, 191, 1)" stroke-width="1.5"></path><path d="M1443.35 94.33L1443.35 94.33" stroke="rgba(146, 176, 191, 1)" stroke-width="1.5"></path><path d="M1443.35 94.33L1406.11 205.51" stroke="rgba(146, 176, 191, 1)" stroke-width="1.5"></path><path d="M1443.35 94.33L1589.56 80.15" stroke="rgba(146, 176, 191, 1)" stroke-width="1.5"></path><path d="M1443.35 94.33L1286.64 214" stroke="rgba(146, 176, 191, 1)" stroke-width="1.5"></path><path d="M1443.35 94.33L1237.7 100.79" stroke="rgba(146, 176, 191, 1)" stroke-width="1.5"></path><path d="M1443.35 94.33L1554.16 -83.63" stroke="rgba(146, 176, 191, 1)" stroke-width="1.5"></path><path d="M1406.11 205.51L1406.11 205.51" stroke="rgba(146, 176, 191, 1)" stroke-width="1.5"></path><path d="M1406.11 205.51L1448.31 389.54" stroke="rgba(146, 176, 191, 1)" stroke-width="1.5"></path><path d="M1448.31 389.54L1448.31 389.54" stroke="rgba(146, 176, 191, 1)" stroke-width="1.5"></path><path d="M1448.31 389.54L1571.71 347.55" stroke="rgba(146, 176, 191, 1)" stroke-width="1.5"></path><path d="M1448.31 389.54L1460.13 525.7" stroke="rgba(146, 176, 191, 1)" stroke-width="1.5"></path><path d="M1460.13 525.7L1460.13 525.7" stroke="rgba(146, 176, 191, 1)" stroke-width="1.5"></path><path d="M1460.13 525.7L1552.95 543.59" stroke="rgba(146, 176, 191, 1)" stroke-width="1.5"></path><path d="M1460.13 525.7L1405.09 710.95" stroke="rgba(146, 176, 191, 1)" stroke-width="1.5"></path><path d="M1460.13 525.7L1293.79 406.56" stroke="rgba(146, 176, 191, 1)" stroke-width="1.5"></path><path d="M1405.09 710.95L1405.09 710.95" stroke="rgba(146, 176, 191, 1)" stroke-width="1.5"></path><path d="M1405.09 710.95L1588.93 711.57" stroke="rgba(146, 176, 191, 1)" stroke-width="1.5"></path><path d="M1405.09 710.95L1552.95 543.59" stroke="rgba(146, 176, 191, 1)" stroke-width="1.5"></path><path d="M1405.09 710.95L1271.43 532.02" stroke="rgba(146, 176, 191, 1)" stroke-width="1.5"></path><path d="M1405.09 710.95L1161.49 697.71" stroke="rgba(146, 176, 191, 1)" stroke-width="1.5"></path><path d="M1554.16 -83.63L1554.16 -83.63" stroke="rgba(146, 176, 191, 1)" stroke-width="1.5"></path><path d="M1554.16 -83.63L1589.56 80.15" stroke="rgba(146, 176, 191, 1)" stroke-width="1.5"></path><path d="M1589.56 80.15L1589.56 80.15" stroke="rgba(146, 176, 191, 1)" stroke-width="1.5"></path><path d="M1589.56 80.15L1609.29 247.63" stroke="rgba(146, 176, 191, 1)" stroke-width="1.5"></path><path d="M1589.56 80.15L1406.11 205.51" stroke="rgba(146, 176, 191, 1)" stroke-width="1.5"></path><path d="M1609.29 247.63L1609.29 247.63" stroke="rgba(146, 176, 191, 1)" stroke-width="1.5"></path><path d="M1609.29 247.63L1571.71 347.55" stroke="rgba(146, 176, 191, 1)" stroke-width="1.5"></path><path d="M1571.71 347.55L1571.71 347.55" stroke="rgba(146, 176, 191, 1)" stroke-width="1.5"></path><path d="M1571.71 347.55L1552.95 543.59" stroke="rgba(146, 176, 191, 1)" stroke-width="1.5"></path><path d="M1552.95 543.59L1552.95 543.59" stroke="rgba(146, 176, 191, 1)" stroke-width="1.5"></path><path d="M1552.95 543.59L1588.93 711.57" stroke="rgba(146, 176, 191, 1)" stroke-width="1.5"></path><path d="M1552.95 543.59L1448.31 389.54" stroke="rgba(146, 176, 191, 1)" stroke-width="1.5"></path><path d="M1588.93 711.57L1588.93 711.57" stroke="rgba(146, 176, 191, 1)" stroke-width="1.5"></path><path d="M1588.93 711.57L1460.13 525.7" stroke="rgba(146, 176, 191, 1)" stroke-width="1.5"></path><path d="M1588.93 711.57L1292.43 706.66" stroke="rgba(146, 176, 191, 1)" stroke-width="1.5"></path><circle r="5" cx="-85.87" cy="362.91" fill="rgba(146, 176, 191, 1)"></circle><circle r="5" cx="-48.45" cy="546.88" fill="rgba(146, 176, 191, 1)"></circle><circle r="5" cx="-91.77" cy="657.16" fill="rgba(146, 176, 191, 1)"></circle><circle r="5" cx="64.85" cy="372.05" fill="rgba(146, 176, 191, 1)"></circle><circle r="5" cx="111.28" cy="703.27" fill="rgba(146, 176, 191, 1)"></circle><circle r="5" cx="219.15" cy="379.37" fill="rgba(146, 176, 191, 1)"></circle><circle r="5" cx="234.84" cy="500.07" fill="rgba(146, 176, 191, 1)"></circle><circle r="5" cx="239.77" cy="658.76" fill="rgba(146, 176, 191, 1)"></circle><circle r="5" cx="393.59" cy="407.89" fill="rgba(146, 176, 191, 1)"></circle><circle r="5" cx="338.39" cy="495.88" fill="rgba(146, 176, 191, 1)"></circle><circle r="5" cx="367.14" cy="658.69" fill="rgba(146, 176, 191, 1)"></circle><circle r="5" cx="490.95" cy="390.11" fill="rgba(146, 176, 191, 1)"></circle><circle r="5" cx="556" cy="542.49" fill="rgba(146, 176, 191, 1)"></circle><circle r="5" cx="534" cy="638.41" fill="rgba(146, 176, 191, 1)"></circle><circle r="5" cx="681.13" cy="242.68" fill="rgba(146, 176, 191, 1)"></circle><circle r="5" cx="662.66" cy="377.09" fill="rgba(146, 176, 191, 1)"></circle><circle r="5" cx="712.19" cy="513.93" fill="rgba(146, 176, 191, 1)"></circle><circle r="5" cx="703.61" cy="709.23" fill="rgba(146, 176, 191, 1)"></circle><circle r="5" cx="851.28" cy="206.13" fill="rgba(146, 176, 191, 1)"></circle><circle r="5" cx="829.09" cy="375.38" fill="rgba(146, 176, 191, 1)"></circle><circle r="5" cx="824.9" cy="530.53" fill="rgba(146, 176, 191, 1)"></circle><circle r="5" cx="795.59" cy="670.33" fill="rgba(146, 176, 191, 1)"></circle><circle r="5" cx="945.9" cy="-83.15" fill="rgba(146, 176, 191, 1)"></circle><circle r="5" cx="972.38" cy="70.44" fill="rgba(146, 176, 191, 1)"></circle><circle r="5" cx="981.16" cy="191.17" fill="rgba(146, 176, 191, 1)"></circle><circle r="5" cx="975.72" cy="381.3" fill="rgba(146, 176, 191, 1)"></circle><circle r="5" cx="945.78" cy="711.97" fill="rgba(146, 176, 191, 1)"></circle><circle r="5" cx="1125.87" cy="-68.2" fill="rgba(146, 176, 191, 1)"></circle><circle r="5" cx="1160.67" cy="62.75" fill="rgba(146, 176, 191, 1)"></circle><circle r="5" cx="1138.34" cy="355.6" fill="rgba(146, 176, 191, 1)"></circle><circle r="5" cx="1155.08" cy="524.01" fill="rgba(146, 176, 191, 1)"></circle><circle r="5" cx="1161.49" cy="697.71" fill="rgba(146, 176, 191, 1)"></circle><circle r="5" cx="1304.71" cy="-94.47" fill="rgba(146, 176, 191, 1)"></circle><circle r="5" cx="1237.7" cy="100.79" fill="rgba(146, 176, 191, 1)"></circle><circle r="5" cx="1286.64" cy="214" fill="rgba(146, 176, 191, 1)"></circle><circle r="5" cx="1293.79" cy="406.56" fill="rgba(146, 176, 191, 1)"></circle><circle r="5" cx="1271.43" cy="532.02" fill="rgba(146, 176, 191, 1)"></circle><circle r="5" cx="1292.43" cy="706.66" fill="rgba(146, 176, 191, 1)"></circle><circle r="5" cx="1415.18" cy="-106.93" fill="rgba(146, 176, 191, 1)"></circle><circle r="5" cx="1443.35" cy="94.33" fill="rgba(146, 176, 191, 1)"></circle><circle r="5" cx="1406.11" cy="205.51" fill="rgba(146, 176, 191, 1)"></circle><circle r="5" cx="1448.31" cy="389.54" fill="rgba(146, 176, 191, 1)"></circle><circle r="5" cx="1460.13" cy="525.7" fill="rgba(146, 176, 191, 1)"></circle><circle r="5" cx="1405.09" cy="710.95" fill="rgba(146, 176, 191, 1)"></circle><circle r="5" cx="1554.16" cy="-83.63" fill="rgba(146, 176, 191, 1)"></circle><circle r="5" cx="1589.56" cy="80.15" fill="rgba(146, 176, 191, 1)"></circle><circle r="5" cx="1609.29" cy="247.63" fill="rgba(146, 176, 191, 1)"></circle><circle r="5" cx="1571.71" cy="347.55" fill="rgba(146, 176, 191, 1)"></circle><circle r="5" cx="1552.95" cy="543.59" fill="rgba(146, 176, 191, 1)"></circle><circle r="5" cx="1588.93" cy="711.57" fill="rgba(146, 176, 191, 1)"></circle><path d="M409.5 517.77L409.5 517.77" stroke="hsl(240, 100%, 100%)" stroke-width="1.5"></path><path d="M409.5 517.77L505.25 529.65" stroke="hsl(240, 100%, 100%)" stroke-width="1.5"></path><path d="M409.5 517.77L388.17 662.83" stroke="hsl(240, 100%, 100%)" stroke-width="1.5"></path><path d="M409.5 517.77L252.32 560.85" stroke="hsl(240, 100%, 100%)" stroke-width="1.5"></path><path d="M409.5 517.77L504.76 668.31" stroke="hsl(240, 100%, 100%)" stroke-width="1.5"></path><path d="M409.5 517.77L243.7 682.26" stroke="hsl(240, 100%, 100%)" stroke-width="1.5"></path><path d="M409.5 517.77L654.46 518.19" stroke="hsl(240, 100%, 100%)" stroke-width="1.5"></path><path d="M505.25 529.65L505.25 529.65" stroke="hsl(240, 100%, 100%)" stroke-width="1.5"></path><path d="M505.25 529.65L504.76 668.31" stroke="hsl(240, 100%, 100%)" stroke-width="1.5"></path><path d="M654.46 518.19L654.46 518.19" stroke="hsl(240, 100%, 100%)" stroke-width="1.5"></path><path d="M654.46 518.19L649.76 382.87" stroke="hsl(240, 100%, 100%)" stroke-width="1.5"></path><path d="M654.46 518.19L695.76 655.45" stroke="hsl(240, 100%, 100%)" stroke-width="1.5"></path><path d="M654.46 518.19L505.25 529.65" stroke="hsl(240, 100%, 100%)" stroke-width="1.5"></path><path d="M654.46 518.19L504.76 668.31" stroke="hsl(240, 100%, 100%)" stroke-width="1.5"></path><path d="M654.46 518.19L851.61 388.91" stroke="hsl(240, 100%, 100%)" stroke-width="1.5"></path><path d="M946.92 534.26L946.92 534.26" stroke="hsl(240, 100%, 100%)" stroke-width="1.5"></path><path d="M946.92 534.26L992.16 676.01" stroke="hsl(240, 100%, 100%)" stroke-width="1.5"></path><path d="M946.92 534.26L851.61 388.91" stroke="hsl(240, 100%, 100%)" stroke-width="1.5"></path><path d="M946.92 534.26L988.07 340.31" stroke="hsl(240, 100%, 100%)" stroke-width="1.5"></path><path d="M946.92 534.26L1148.35 512.28" stroke="hsl(240, 100%, 100%)" stroke-width="1.5"></path><path d="M946.92 534.26L1101.62 372.69" stroke="hsl(240, 100%, 100%)" stroke-width="1.5"></path><path d="M1261.63 -52.57L1261.63 -52.57" stroke="hsl(240, 100%, 100%)" stroke-width="1.5"></path><path d="M1261.63 -52.57L1307.14 62.2" stroke="hsl(240, 100%, 100%)" stroke-width="1.5"></path><path d="M1261.63 -52.57L1397.68 50.75" stroke="hsl(240, 100%, 100%)" stroke-width="1.5"></path><path d="M1589.26 -92.55L1589.26 -92.55" stroke="hsl(240, 100%, 100%)" stroke-width="1.5"></path><path d="M1589.26 -92.55L1568.48 64.77" stroke="hsl(240, 100%, 100%)" stroke-width="1.5"></path><path d="M1589.26 -92.55L1397.68 50.75" stroke="hsl(240, 100%, 100%)" stroke-width="1.5"></path><path d="M1589.26 -92.55L1307.14 62.2" stroke="hsl(240, 100%, 100%)" stroke-width="1.5"></path><path d="M1589.26 -92.55L1569.34 231.72" stroke="hsl(240, 100%, 100%)" stroke-width="1.5"></path><path d="M-92.62 522.84L-92.62 522.84" stroke="hsl(240, 100%, 100%)" stroke-width="1.5"></path><path d="M-92.62 522.84L-64.69 677.21" stroke="hsl(240, 100%, 100%)" stroke-width="1.5"></path><path d="M-92.62 522.84L65.32 559.18" stroke="hsl(240, 100%, 100%)" stroke-width="1.5"></path><path d="M-92.62 522.84L72.06 656.75" stroke="hsl(240, 100%, 100%)" stroke-width="1.5"></path><path d="M-64.69 677.21L-64.69 677.21" stroke="hsl(240, 100%, 100%)" stroke-width="1.5"></path><path d="M-64.69 677.21L72.06 656.75" stroke="hsl(240, 100%, 100%)" stroke-width="1.5"></path><path d="M-64.69 677.21L65.32 559.18" stroke="hsl(240, 100%, 100%)" stroke-width="1.5"></path><path d="M65.32 559.18L65.32 559.18" stroke="hsl(240, 100%, 100%)" stroke-width="1.5"></path><path d="M65.32 559.18L72.06 656.75" stroke="hsl(240, 100%, 100%)" stroke-width="1.5"></path><path d="M65.32 559.18L252.32 560.85" stroke="hsl(240, 100%, 100%)" stroke-width="1.5"></path><path d="M65.32 559.18L243.7 682.26" stroke="hsl(240, 100%, 100%)" stroke-width="1.5"></path><path d="M72.06 656.75L72.06 656.75" stroke="hsl(240, 100%, 100%)" stroke-width="1.5"></path><path d="M72.06 656.75L243.7 682.26" stroke="hsl(240, 100%, 100%)" stroke-width="1.5"></path><path d="M252.32 560.85L252.32 560.85" stroke="hsl(240, 100%, 100%)" stroke-width="1.5"></path><path d="M252.32 560.85L243.7 682.26" stroke="hsl(240, 100%, 100%)" stroke-width="1.5"></path><path d="M252.32 560.85L388.17 662.83" stroke="hsl(240, 100%, 100%)" stroke-width="1.5"></path><path d="M243.7 682.26L243.7 682.26" stroke="hsl(240, 100%, 100%)" stroke-width="1.5"></path><path d="M243.7 682.26L388.17 662.83" stroke="hsl(240, 100%, 100%)" stroke-width="1.5"></path><path d="M388.17 662.83L388.17 662.83" stroke="hsl(240, 100%, 100%)" stroke-width="1.5"></path><path d="M388.17 662.83L504.76 668.31" stroke="hsl(240, 100%, 100%)" stroke-width="1.5"></path><path d="M388.17 662.83L505.25 529.65" stroke="hsl(240, 100%, 100%)" stroke-width="1.5"></path><path d="M504.76 668.31L504.76 668.31" stroke="hsl(240, 100%, 100%)" stroke-width="1.5"></path><path d="M504.76 668.31L695.76 655.45" stroke="hsl(240, 100%, 100%)" stroke-width="1.5"></path><path d="M649.76 382.87L649.76 382.87" stroke="hsl(240, 100%, 100%)" stroke-width="1.5"></path><path d="M649.76 382.87L851.61 388.91" stroke="hsl(240, 100%, 100%)" stroke-width="1.5"></path><path d="M649.76 382.87L505.25 529.65" stroke="hsl(240, 100%, 100%)" stroke-width="1.5"></path><path d="M649.76 382.87L409.5 517.77" stroke="hsl(240, 100%, 100%)" stroke-width="1.5"></path><path d="M649.76 382.87L695.76 655.45" stroke="hsl(240, 100%, 100%)" stroke-width="1.5"></path><path d="M695.76 655.45L695.76 655.45" stroke="hsl(240, 100%, 100%)" stroke-width="1.5"></path><path d="M695.76 655.45L505.25 529.65" stroke="hsl(240, 100%, 100%)" stroke-width="1.5"></path><path d="M695.76 655.45L946.92 534.26" stroke="hsl(240, 100%, 100%)" stroke-width="1.5"></path><path d="M695.76 655.45L992.16 676.01" stroke="hsl(240, 100%, 100%)" stroke-width="1.5"></path><path d="M851.61 388.91L851.61 388.91" stroke="hsl(240, 100%, 100%)" stroke-width="1.5"></path><path d="M851.61 388.91L988.07 340.31" stroke="hsl(240, 100%, 100%)" stroke-width="1.5"></path><path d="M988.07 340.31L988.07 340.31" stroke="hsl(240, 100%, 100%)" stroke-width="1.5"></path><path d="M988.07 340.31L1101.62 372.69" stroke="hsl(240, 100%, 100%)" stroke-width="1.5"></path><path d="M988.07 340.31L1127.76 246.53" stroke="hsl(240, 100%, 100%)" stroke-width="1.5"></path><path d="M988.07 340.31L1148.35 512.28" stroke="hsl(240, 100%, 100%)" stroke-width="1.5"></path><path d="M988.07 340.31L1266.89 362.06" stroke="hsl(240, 100%, 100%)" stroke-width="1.5"></path><path d="M992.16 676.01L992.16 676.01" stroke="hsl(240, 100%, 100%)" stroke-width="1.5"></path><path d="M992.16 676.01L1156.46 679.42" stroke="hsl(240, 100%, 100%)" stroke-width="1.5"></path><path d="M992.16 676.01L1148.35 512.28" stroke="hsl(240, 100%, 100%)" stroke-width="1.5"></path><path d="M992.16 676.01L1287.84 652.37" stroke="hsl(240, 100%, 100%)" stroke-width="1.5"></path><path d="M992.16 676.01L851.61 388.91" stroke="hsl(240, 100%, 100%)" stroke-width="1.5"></path><path d="M1127.76 246.53L1127.76 246.53" stroke="hsl(240, 100%, 100%)" stroke-width="1.5"></path><path d="M1127.76 246.53L1101.62 372.69" stroke="hsl(240, 100%, 100%)" stroke-width="1.5"></path><path d="M1127.76 246.53L1304.43 237.47" stroke="hsl(240, 100%, 100%)" stroke-width="1.5"></path><path d="M1127.76 246.53L1266.89 362.06" stroke="hsl(240, 100%, 100%)" stroke-width="1.5"></path><path d="M1127.76 246.53L1307.14 62.2" stroke="hsl(240, 100%, 100%)" stroke-width="1.5"></path><path d="M1127.76 246.53L1148.35 512.28" stroke="hsl(240, 100%, 100%)" stroke-width="1.5"></path><path d="M1101.62 372.69L1101.62 372.69" stroke="hsl(240, 100%, 100%)" stroke-width="1.5"></path><path d="M1101.62 372.69L1148.35 512.28" stroke="hsl(240, 100%, 100%)" stroke-width="1.5"></path><path d="M1101.62 372.69L1266.89 362.06" stroke="hsl(240, 100%, 100%)" stroke-width="1.5"></path><path d="M1148.35 512.28L1148.35 512.28" stroke="hsl(240, 100%, 100%)" stroke-width="1.5"></path><path d="M1148.35 512.28L1271.03 493.58" stroke="hsl(240, 100%, 100%)" stroke-width="1.5"></path><path d="M1148.35 512.28L1156.46 679.42" stroke="hsl(240, 100%, 100%)" stroke-width="1.5"></path><path d="M1148.35 512.28L1266.89 362.06" stroke="hsl(240, 100%, 100%)" stroke-width="1.5"></path><path d="M1156.46 679.42L1156.46 679.42" stroke="hsl(240, 100%, 100%)" stroke-width="1.5"></path><path d="M1156.46 679.42L1287.84 652.37" stroke="hsl(240, 100%, 100%)" stroke-width="1.5"></path><path d="M1307.14 62.2L1307.14 62.2" stroke="hsl(240, 100%, 100%)" stroke-width="1.5"></path><path d="M1307.14 62.2L1397.68 50.75" stroke="hsl(240, 100%, 100%)" stroke-width="1.5"></path><path d="M1304.43 237.47L1304.43 237.47" stroke="hsl(240, 100%, 100%)" stroke-width="1.5"></path><path d="M1304.43 237.47L1406.66 240.19" stroke="hsl(240, 100%, 100%)" stroke-width="1.5"></path><path d="M1304.43 237.47L1266.89 362.06" stroke="hsl(240, 100%, 100%)" stroke-width="1.5"></path><path d="M1266.89 362.06L1266.89 362.06" stroke="hsl(240, 100%, 100%)" stroke-width="1.5"></path><path d="M1266.89 362.06L1271.03 493.58" stroke="hsl(240, 100%, 100%)" stroke-width="1.5"></path><path d="M1271.03 493.58L1271.03 493.58" stroke="hsl(240, 100%, 100%)" stroke-width="1.5"></path><path d="M1271.03 493.58L1287.84 652.37" stroke="hsl(240, 100%, 100%)" stroke-width="1.5"></path><path d="M1287.84 652.37L1287.84 652.37" stroke="hsl(240, 100%, 100%)" stroke-width="1.5"></path><path d="M1287.84 652.37L1433.68 676.37" stroke="hsl(240, 100%, 100%)" stroke-width="1.5"></path><path d="M1397.68 50.75L1397.68 50.75" stroke="hsl(240, 100%, 100%)" stroke-width="1.5"></path><path d="M1406.66 240.19L1406.66 240.19" stroke="hsl(240, 100%, 100%)" stroke-width="1.5"></path><path d="M1406.66 240.19L1405.35 355.93" stroke="hsl(240, 100%, 100%)" stroke-width="1.5"></path><path d="M1406.66 240.19L1569.34 231.72" stroke="hsl(240, 100%, 100%)" stroke-width="1.5"></path><path d="M1405.35 355.93L1405.35 355.93" stroke="hsl(240, 100%, 100%)" stroke-width="1.5"></path><path d="M1405.35 355.93L1266.89 362.06" stroke="hsl(240, 100%, 100%)" stroke-width="1.5"></path><path d="M1405.35 355.93L1304.43 237.47" stroke="hsl(240, 100%, 100%)" stroke-width="1.5"></path><path d="M1405.35 355.93L1573.67 341.7" stroke="hsl(240, 100%, 100%)" stroke-width="1.5"></path><path d="M1405.35 355.93L1450.31 534.19" stroke="hsl(240, 100%, 100%)" stroke-width="1.5"></path><path d="M1450.31 534.19L1450.31 534.19" stroke="hsl(240, 100%, 100%)" stroke-width="1.5"></path><path d="M1450.31 534.19L1580.33 498.35" stroke="hsl(240, 100%, 100%)" stroke-width="1.5"></path><path d="M1450.31 534.19L1433.68 676.37" stroke="hsl(240, 100%, 100%)" stroke-width="1.5"></path><path d="M1450.31 534.19L1543.39 687.17" stroke="hsl(240, 100%, 100%)" stroke-width="1.5"></path><path d="M1450.31 534.19L1271.03 493.58" stroke="hsl(240, 100%, 100%)" stroke-width="1.5"></path><path d="M1433.68 676.37L1433.68 676.37" stroke="hsl(240, 100%, 100%)" stroke-width="1.5"></path><path d="M1433.68 676.37L1543.39 687.17" stroke="hsl(240, 100%, 100%)" stroke-width="1.5"></path><path d="M1433.68 676.37L1580.33 498.35" stroke="hsl(240, 100%, 100%)" stroke-width="1.5"></path><path d="M1433.68 676.37L1271.03 493.58" stroke="hsl(240, 100%, 100%)" stroke-width="1.5"></path><path d="M1433.68 676.37L1156.46 679.42" stroke="hsl(240, 100%, 100%)" stroke-width="1.5"></path><path d="M1568.48 64.77L1568.48 64.77" stroke="hsl(240, 100%, 100%)" stroke-width="1.5"></path><path d="M1568.48 64.77L1569.34 231.72" stroke="hsl(240, 100%, 100%)" stroke-width="1.5"></path><path d="M1568.48 64.77L1397.68 50.75" stroke="hsl(240, 100%, 100%)" stroke-width="1.5"></path><path d="M1569.34 231.72L1569.34 231.72" stroke="hsl(240, 100%, 100%)" stroke-width="1.5"></path><path d="M1569.34 231.72L1573.67 341.7" stroke="hsl(240, 100%, 100%)" stroke-width="1.5"></path><path d="M1569.34 231.72L1405.35 355.93" stroke="hsl(240, 100%, 100%)" stroke-width="1.5"></path><path d="M1569.34 231.72L1397.68 50.75" stroke="hsl(240, 100%, 100%)" stroke-width="1.5"></path><path d="M1569.34 231.72L1304.43 237.47" stroke="hsl(240, 100%, 100%)" stroke-width="1.5"></path><path d="M1573.67 341.7L1573.67 341.7" stroke="hsl(240, 100%, 100%)" stroke-width="1.5"></path><path d="M1573.67 341.7L1580.33 498.35" stroke="hsl(240, 100%, 100%)" stroke-width="1.5"></path><path d="M1573.67 341.7L1406.66 240.19" stroke="hsl(240, 100%, 100%)" stroke-width="1.5"></path><path d="M1573.67 341.7L1450.31 534.19" stroke="hsl(240, 100%, 100%)" stroke-width="1.5"></path><path d="M1573.67 341.7L1568.48 64.77" stroke="hsl(240, 100%, 100%)" stroke-width="1.5"></path><path d="M1580.33 498.35L1580.33 498.35" stroke="hsl(240, 100%, 100%)" stroke-width="1.5"></path><path d="M1580.33 498.35L1543.39 687.17" stroke="hsl(240, 100%, 100%)" stroke-width="1.5"></path><path d="M1580.33 498.35L1405.35 355.93" stroke="hsl(240, 100%, 100%)" stroke-width="1.5"></path><path d="M1543.39 687.17L1543.39 687.17" stroke="hsl(240, 100%, 100%)" stroke-width="1.5"></path><circle r="25" cx="409.5" cy="517.77" fill="url(&quot;#SvgjsRadialGradient1013&quot;)"></circle><circle r="25" cx="505.25" cy="529.65" fill="url(&quot;#SvgjsRadialGradient1013&quot;)"></circle><circle r="25" cx="654.46" cy="518.19" fill="url(&quot;#SvgjsRadialGradient1013&quot;)"></circle><circle r="25" cx="946.92" cy="534.26" fill="url(&quot;#SvgjsRadialGradient1013&quot;)"></circle><circle r="25" cx="1261.63" cy="-52.57" fill="url(&quot;#SvgjsRadialGradient1013&quot;)"></circle><circle r="25" cx="1589.26" cy="-92.55" fill="url(&quot;#SvgjsRadialGradient1013&quot;)"></circle><circle r="5" cx="-92.62" cy="522.84" fill="#f4f4ff"></circle><circle r="5" cx="-64.69" cy="677.21" fill="#f4f4ff"></circle><circle r="5" cx="65.32" cy="559.18" fill="#f4f4ff"></circle><circle r="5" cx="72.06" cy="656.75" fill="#f4f4ff"></circle><circle r="5" cx="252.32" cy="560.85" fill="#f4f4ff"></circle><circle r="5" cx="243.7" cy="682.26" fill="#f4f4ff"></circle><circle r="5" cx="388.17" cy="662.83" fill="#f4f4ff"></circle><circle r="5" cx="504.76" cy="668.31" fill="#f4f4ff"></circle><circle r="5" cx="649.76" cy="382.87" fill="#f4f4ff"></circle><circle r="5" cx="695.76" cy="655.45" fill="#f4f4ff"></circle><circle r="5" cx="851.61" cy="388.91" fill="#f4f4ff"></circle><circle r="5" cx="988.07" cy="340.31" fill="#f4f4ff"></circle><circle r="5" cx="992.16" cy="676.01" fill="#f4f4ff"></circle><circle r="5" cx="1127.76" cy="246.53" fill="#f4f4ff"></circle><circle r="5" cx="1101.62" cy="372.69" fill="#f4f4ff"></circle><circle r="5" cx="1148.35" cy="512.28" fill="#f4f4ff"></circle><circle r="5" cx="1156.46" cy="679.42" fill="#f4f4ff"></circle><circle r="5" cx="1307.14" cy="62.2" fill="#f4f4ff"></circle><circle r="5" cx="1304.43" cy="237.47" fill="#f4f4ff"></circle><circle r="5" cx="1266.89" cy="362.06" fill="#f4f4ff"></circle><circle r="5" cx="1271.03" cy="493.58" fill="#f4f4ff"></circle><circle r="5" cx="1287.84" cy="652.37" fill="#f4f4ff"></circle><circle r="5" cx="1397.68" cy="50.75" fill="#f4f4ff"></circle><circle r="5" cx="1406.66" cy="240.19" fill="#f4f4ff"></circle><circle r="5" cx="1405.35" cy="355.93" fill="#f4f4ff"></circle><circle r="5" cx="1450.31" cy="534.19" fill="#f4f4ff"></circle><circle r="5" cx="1433.68" cy="676.37" fill="#f4f4ff"></circle><circle r="5" cx="1568.48" cy="64.77" fill="#f4f4ff"></circle><circle r="5" cx="1569.34" cy="231.72" fill="#f4f4ff"></circle><circle r="5" cx="1573.67" cy="341.7" fill="#f4f4ff"></circle><circle r="5" cx="1580.33" cy="498.35" fill="#f4f4ff"></circle><circle r="5" cx="1543.39" cy="687.17" fill="#f4f4ff"></circle></g><defs><mask id="SvgjsMask1012"><rect width="1440" height="560" fill="#ffffff"></rect></mask><radialGradient id="SvgjsRadialGradient1013"><stop stop-color="#ffffff" offset="0.1"></stop><stop stop-color="rgba(232, 232, 255, 1)" offset="0.2"></stop><stop stop-color="rgba(232, 232, 255, 0)" offset="1"></stop></radialGradient></defs></svg>