<svg xmlns="http://www.w3.org/2000/svg" viewBox="0 0 1920 1080"><g transform="
          rotate(33 960 540) 
          translate(-774.6410316532533 -435.73558030495496)
          scale(1.8069177413054722)
        "><rect width="1920" height="1080" fill="rgb(196, 216, 225)"></rect><g transform="translate(0, 0)"><path fill="rgb(229, 238, 242)" fill-opacity="1" d="M0,211.766L17.778,210.045C35.556,208.324,71.111,204.882,106.667,204.349C142.222,203.815,177.778,206.19,213.333,206.457C248.889,206.724,284.444,204.883,320,181.91C355.556,158.936,391.111,114.83,426.667,111.105C462.222,107.38,497.778,144.036,533.333,132.802C568.889,121.567,604.444,62.441,640,59.088C675.556,55.735,711.111,108.155,746.667,121.211C782.222,134.268,817.778,107.962,853.333,83.613C888.889,59.265,924.444,36.873,960,48.431C995.556,59.99,1031.111,105.497,1066.667,113.703C1102.222,121.909,1137.778,92.812,1173.333,78.248C1208.889,63.685,1244.444,63.654,1280,84.765C1315.556,105.875,1351.111,148.126,1386.667,170.818C1422.222,193.51,1457.778,196.643,1493.333,170.805C1528.889,144.967,1564.444,90.158,1600,67.574C1635.556,44.99,1671.111,54.631,1706.667,75.764C1742.222,96.896,1777.778,129.519,1813.333,152.598C1848.889,175.676,1884.444,189.21,1902.222,195.977L1920,202.744L1920,1080L1902.222,1080C1884.444,1080,1848.889,1080,1813.333,1080C1777.778,1080,1742.222,1080,1706.667,1080C1671.111,1080,1635.556,1080,1600,1080C1564.444,1080,1528.889,1080,1493.333,1080C1457.778,1080,1422.222,1080,1386.667,1080C1351.111,1080,1315.556,1080,1280,1080C1244.444,1080,1208.889,1080,1173.333,1080C1137.778,1080,1102.222,1080,1066.667,1080C1031.111,1080,995.556,1080,960,1080C924.444,1080,888.889,1080,853.333,1080C817.778,1080,782.222,1080,746.667,1080C711.111,1080,675.556,1080,640,1080C604.444,1080,568.889,1080,533.333,1080C497.778,1080,462.222,1080,426.667,1080C391.111,1080,355.556,1080,320,1080C284.444,1080,248.889,1080,213.333,1080C177.778,1080,142.222,1080,106.667,1080C71.111,1080,35.556,1080,17.778,1080L0,1080Z"></path></g><g transform="translate(0, 216)"><path fill="rgb(250, 252, 252)" fill-opacity="1" d="M0,108.735L17.778,92.52C35.556,76.304,71.111,43.874,106.667,26.019C142.222,8.164,177.778,4.885,213.333,24.647C248.889,44.41,284.444,87.215,320,100.669C355.556,114.124,391.111,98.228,426.667,81.706C462.222,65.185,497.778,48.037,533.333,43.353C568.889,38.669,604.444,46.447,640,51.965C675.556,57.483,711.111,60.739,746.667,79.834C782.222,98.928,817.778,133.861,853.333,157.65C888.889,181.439,924.444,194.085,960,201.671C995.556,209.256,1031.111,211.781,1066.667,197.174C1102.222,182.567,1137.778,150.829,1173.333,125.577C1208.889,100.325,1244.444,81.56,1280,65.182C1315.556,48.804,1351.111,34.813,1386.667,55.484C1422.222,76.155,1457.778,131.487,1493.333,163.3C1528.889,195.113,1564.444,203.408,1600,207.849C1635.556,212.29,1671.111,212.879,1706.667,200.569C1742.222,188.259,1777.778,163.051,1813.333,147.31C1848.889,131.569,1884.444,125.295,1902.222,122.158L1920,119.021L1920,864L1902.222,864C1884.444,864,1848.889,864,1813.333,864C1777.778,864,1742.222,864,1706.667,864C1671.111,864,1635.556,864,1600,864C1564.444,864,1528.889,864,1493.333,864C1457.778,864,1422.222,864,1386.667,864C1351.111,864,1315.556,864,1280,864C1244.444,864,1208.889,864,1173.333,864C1137.778,864,1102.222,864,1066.667,864C1031.111,864,995.556,864,960,864C924.444,864,888.889,864,853.333,864C817.778,864,782.222,864,746.667,864C711.111,864,675.556,864,640,864C604.444,864,568.889,864,533.333,864C497.778,864,462.222,864,426.667,864C391.111,864,355.556,864,320,864C284.444,864,248.889,864,213.333,864C177.778,864,142.222,864,106.667,864C71.111,864,35.556,864,17.778,864L0,864Z"></path></g><g transform="translate(0, 432)"><path fill="rgb(250, 252, 252)" fill-opacity="1" d="M0,60.925L17.778,85.903C35.556,110.882,71.111,160.839,106.667,181.672C142.222,202.506,177.778,194.215,213.333,191.858C248.889,189.501,284.444,193.078,320,188.928C355.556,184.778,391.111,172.902,426.667,143.273C462.222,113.645,497.778,66.265,533.333,71.939C568.889,77.613,604.444,136.34,640,149.683C675.556,163.026,711.111,130.984,746.667,103.738C782.222,76.492,817.778,54.041,853.333,53.578C888.889,53.116,924.444,74.641,960,104.636C995.556,134.631,1031.111,173.096,1066.667,175.404C1102.222,177.711,1137.778,143.859,1173.333,123.912C1208.889,103.964,1244.444,97.92,1280,81.858C1315.556,65.796,1351.111,39.716,1386.667,26.367C1422.222,13.018,1457.778,12.4,1493.333,24.143C1528.889,35.885,1564.444,59.988,1600,92.654C1635.556,125.321,1671.111,166.55,1706.667,180.531C1742.222,194.511,1777.778,181.241,1813.333,151.53C1848.889,121.819,1884.444,75.666,1902.222,52.589L1920,29.513L1920,648L1902.222,648C1884.444,648,1848.889,648,1813.333,648C1777.778,648,1742.222,648,1706.667,648C1671.111,648,1635.556,648,1600,648C1564.444,648,1528.889,648,1493.333,648C1457.778,648,1422.222,648,1386.667,648C1351.111,648,1315.556,648,1280,648C1244.444,648,1208.889,648,1173.333,648C1137.778,648,1102.222,648,1066.667,648C1031.111,648,995.556,648,960,648C924.444,648,888.889,648,853.333,648C817.778,648,782.222,648,746.667,648C711.111,648,675.556,648,640,648C604.444,648,568.889,648,533.333,648C497.778,648,462.222,648,426.667,648C391.111,648,355.556,648,320,648C284.444,648,248.889,648,213.333,648C177.778,648,142.222,648,106.667,648C71.111,648,35.556,648,17.778,648L0,648Z"></path></g><g transform="translate(0, 648)"><path fill="rgb(229, 238, 242)" fill-opacity="1" d="M0,202.044L17.778,182.272C35.556,162.501,71.111,122.957,106.667,113.69C142.222,104.422,177.778,125.43,213.333,126.725C248.889,128.019,284.444,109.599,320,111.763C355.556,113.926,391.111,136.673,426.667,147.738C462.222,158.803,497.778,158.186,533.333,147.573C568.889,136.96,604.444,116.352,640,110.405C675.556,104.458,711.111,113.173,746.667,117.433C782.222,121.693,817.778,121.498,853.333,119.379C888.889,117.259,924.444,113.215,960,109.666C995.556,106.117,1031.111,103.064,1066.667,88.535C1102.222,74.007,1137.778,48.003,1173.333,32.475C1208.889,16.947,1244.444,11.895,1280,19.109C1315.556,26.324,1351.111,45.805,1386.667,58.053C1422.222,70.3,1457.778,75.313,1493.333,76.449C1528.889,77.585,1564.444,74.844,1600,81.247C1635.556,87.65,1671.111,103.196,1706.667,114.399C1742.222,125.601,1777.778,132.46,1813.333,143.197C1848.889,153.934,1884.444,168.549,1902.222,175.857L1920,183.165L1920,432L1902.222,432C1884.444,432,1848.889,432,1813.333,432C1777.778,432,1742.222,432,1706.667,432C1671.111,432,1635.556,432,1600,432C1564.444,432,1528.889,432,1493.333,432C1457.778,432,1422.222,432,1386.667,432C1351.111,432,1315.556,432,1280,432C1244.444,432,1208.889,432,1173.333,432C1137.778,432,1102.222,432,1066.667,432C1031.111,432,995.556,432,960,432C924.444,432,888.889,432,853.333,432C817.778,432,782.222,432,746.667,432C711.111,432,675.556,432,640,432C604.444,432,568.889,432,533.333,432C497.778,432,462.222,432,426.667,432C391.111,432,355.556,432,320,432C284.444,432,248.889,432,213.333,432C177.778,432,142.222,432,106.667,432C71.111,432,35.556,432,17.778,432L0,432Z"></path></g><g transform="translate(0, 864)"><path fill="rgb(196, 216, 225)" fill-opacity="1" d="M0,124.342L17.778,113.871C35.556,103.4,71.111,82.458,106.667,82.98C142.222,83.502,177.778,105.488,213.333,101.996C248.889,98.503,284.444,69.532,320,77.395C355.556,85.258,391.111,129.955,426.667,138.729C462.222,147.503,497.778,120.353,533.333,126.401C568.889,132.45,604.444,171.697,640,188.238C675.556,204.779,711.111,198.614,746.667,181.308C782.222,164.001,817.778,135.554,853.333,133.808C888.889,132.063,924.444,157.02,960,154.97C995.556,152.92,1031.111,123.862,1066.667,111.914C1102.222,99.965,1137.778,105.126,1173.333,93.823C1208.889,82.521,1244.444,54.755,1280,59.273C1315.556,63.79,1351.111,100.591,1386.667,96.14C1422.222,91.69,1457.778,45.989,1493.333,38.981C1528.889,31.972,1564.444,63.656,1600,92.954C1635.556,122.252,1671.111,149.165,1706.667,133.687C1742.222,118.209,1777.778,60.341,1813.333,57.128C1848.889,53.914,1884.444,105.356,1902.222,131.077L1920,156.798L1920,216L1902.222,216C1884.444,216,1848.889,216,1813.333,216C1777.778,216,1742.222,216,1706.667,216C1671.111,216,1635.556,216,1600,216C1564.444,216,1528.889,216,1493.333,216C1457.778,216,1422.222,216,1386.667,216C1351.111,216,1315.556,216,1280,216C1244.444,216,1208.889,216,1173.333,216C1137.778,216,1102.222,216,1066.667,216C1031.111,216,995.556,216,960,216C924.444,216,888.889,216,853.333,216C817.778,216,782.222,216,746.667,216C711.111,216,675.556,216,640,216C604.444,216,568.889,216,533.333,216C497.778,216,462.222,216,426.667,216C391.111,216,355.556,216,320,216C284.444,216,248.889,216,213.333,216C177.778,216,142.222,216,106.667,216C71.111,216,35.556,216,17.778,216L0,216Z"></path></g></g></svg>