<svg xmlns="http://www.w3.org/2000/svg" viewBox="0 0 1920 1080"><g transform="
          rotate(33 960 540) 
          translate(-774.6410316532533 -435.73558030495496)
          scale(1.8069177413054722)
        "><rect width="1920" height="1080" fill="rgb(196, 216, 225)"></rect><g transform="translate(0, 0)"><path fill="rgb(224, 235, 239)" fill-opacity="1" d="M0,176.472L17.778,175.038C35.556,173.603,71.111,170.735,106.667,170.291C142.222,169.846,177.778,171.825,213.333,172.047C248.889,172.27,284.444,170.736,320,151.592C355.556,132.447,391.111,95.692,426.667,92.587C462.222,89.483,497.778,120.03,533.333,110.668C568.889,101.306,604.444,52.034,640,49.24C675.556,46.446,711.111,90.129,746.667,101.009C782.222,111.89,817.778,89.968,853.333,69.678C888.889,49.387,924.444,30.728,960,40.359C995.556,49.991,1031.111,87.914,1066.667,94.752C1102.222,101.59,1137.778,77.343,1173.333,65.207C1208.889,53.071,1244.444,53.045,1280,70.637C1315.556,88.229,1351.111,123.439,1386.667,142.349C1422.222,161.259,1457.778,163.869,1493.333,142.337C1528.889,120.806,1564.444,75.131,1600,56.312C1635.556,37.492,1671.111,45.526,1706.667,63.136C1742.222,80.747,1777.778,107.933,1813.333,127.165C1848.889,146.397,1884.444,157.675,1902.222,163.314L1920,168.953L1920,1080L1902.222,1080C1884.444,1080,1848.889,1080,1813.333,1080C1777.778,1080,1742.222,1080,1706.667,1080C1671.111,1080,1635.556,1080,1600,1080C1564.444,1080,1528.889,1080,1493.333,1080C1457.778,1080,1422.222,1080,1386.667,1080C1351.111,1080,1315.556,1080,1280,1080C1244.444,1080,1208.889,1080,1173.333,1080C1137.778,1080,1102.222,1080,1066.667,1080C1031.111,1080,995.556,1080,960,1080C924.444,1080,888.889,1080,853.333,1080C817.778,1080,782.222,1080,746.667,1080C711.111,1080,675.556,1080,640,1080C604.444,1080,568.889,1080,533.333,1080C497.778,1080,462.222,1080,426.667,1080C391.111,1080,355.556,1080,320,1080C284.444,1080,248.889,1080,213.333,1080C177.778,1080,142.222,1080,106.667,1080C71.111,1080,35.556,1080,17.778,1080L0,1080Z"></path></g><g transform="translate(0, 180)"><path fill="rgb(245, 249, 250)" fill-opacity="1" d="M0,90.613L17.778,77.1C35.556,63.587,71.111,36.561,106.667,21.682C142.222,6.803,177.778,4.071,213.333,20.539C248.889,37.008,284.444,72.679,320,83.891C355.556,95.103,391.111,81.857,426.667,68.089C462.222,54.321,497.778,40.031,533.333,36.128C568.889,32.224,604.444,38.706,640,43.304C675.556,47.902,711.111,50.616,746.667,66.528C782.222,82.44,817.778,111.551,853.333,131.375C888.889,151.199,924.444,161.738,960,168.059C995.556,174.38,1031.111,176.484,1066.667,164.312C1102.222,152.14,1137.778,125.691,1173.333,104.647C1208.889,83.604,1244.444,67.967,1280,54.318C1315.556,40.67,1351.111,29.011,1386.667,46.237C1422.222,63.462,1457.778,109.573,1493.333,136.084C1528.889,162.595,1564.444,169.506,1600,173.207C1635.556,176.908,1671.111,177.399,1706.667,167.141C1742.222,156.883,1777.778,135.876,1813.333,122.758C1848.889,109.641,1884.444,104.412,1902.222,101.798L1920,99.184L1920,900L1902.222,900C1884.444,900,1848.889,900,1813.333,900C1777.778,900,1742.222,900,1706.667,900C1671.111,900,1635.556,900,1600,900C1564.444,900,1528.889,900,1493.333,900C1457.778,900,1422.222,900,1386.667,900C1351.111,900,1315.556,900,1280,900C1244.444,900,1208.889,900,1173.333,900C1137.778,900,1102.222,900,1066.667,900C1031.111,900,995.556,900,960,900C924.444,900,888.889,900,853.333,900C817.778,900,782.222,900,746.667,900C711.111,900,675.556,900,640,900C604.444,900,568.889,900,533.333,900C497.778,900,462.222,900,426.667,900C391.111,900,355.556,900,320,900C284.444,900,248.889,900,213.333,900C177.778,900,142.222,900,106.667,900C71.111,900,35.556,900,17.778,900L0,900Z"></path></g><g transform="translate(0, 360)"><path fill="rgb(251, 252, 253)" fill-opacity="1" d="M0,50.771L17.778,71.586C35.556,92.402,71.111,134.033,106.667,151.394C142.222,168.755,177.778,161.846,213.333,159.882C248.889,157.917,284.444,160.898,320,157.44C355.556,153.982,391.111,144.085,426.667,119.395C462.222,94.704,497.778,55.221,533.333,59.949C568.889,64.677,604.444,113.617,640,124.736C675.556,135.855,711.111,109.153,746.667,86.448C782.222,63.743,817.778,45.034,853.333,44.649C888.889,44.263,924.444,62.201,960,87.197C995.556,112.193,1031.111,144.247,1066.667,146.17C1102.222,148.092,1137.778,119.883,1173.333,103.26C1208.889,86.637,1244.444,81.6,1280,68.215C1315.556,54.83,1351.111,33.097,1386.667,21.973C1422.222,10.848,1457.778,10.334,1493.333,20.119C1528.889,29.904,1564.444,49.99,1600,77.212C1635.556,104.434,1671.111,138.792,1706.667,150.442C1742.222,162.092,1777.778,151.034,1813.333,126.275C1848.889,101.516,1884.444,63.055,1902.222,43.824L1920,24.594L1920,720L1902.222,720C1884.444,720,1848.889,720,1813.333,720C1777.778,720,1742.222,720,1706.667,720C1671.111,720,1635.556,720,1600,720C1564.444,720,1528.889,720,1493.333,720C1457.778,720,1422.222,720,1386.667,720C1351.111,720,1315.556,720,1280,720C1244.444,720,1208.889,720,1173.333,720C1137.778,720,1102.222,720,1066.667,720C1031.111,720,995.556,720,960,720C924.444,720,888.889,720,853.333,720C817.778,720,782.222,720,746.667,720C711.111,720,675.556,720,640,720C604.444,720,568.889,720,533.333,720C497.778,720,462.222,720,426.667,720C391.111,720,355.556,720,320,720C284.444,720,248.889,720,213.333,720C177.778,720,142.222,720,106.667,720C71.111,720,35.556,720,17.778,720L0,720Z"></path></g><g transform="translate(0, 540)"><path fill="rgb(230, 240, 244)" fill-opacity="1" d="M0,168.37L17.778,151.894C35.556,135.417,71.111,102.464,106.667,94.741C142.222,87.018,177.778,104.525,213.333,105.604C248.889,106.682,284.444,91.333,320,93.136C355.556,94.939,391.111,113.894,426.667,123.115C462.222,132.336,497.778,131.821,533.333,122.977C568.889,114.133,604.444,96.96,640,92.004C675.556,87.049,711.111,94.311,746.667,97.861C782.222,101.411,817.778,101.248,853.333,99.482C888.889,97.716,924.444,94.346,960,91.388C995.556,88.431,1031.111,85.887,1066.667,73.779C1102.222,61.672,1137.778,40.003,1173.333,27.062C1208.889,14.122,1244.444,9.912,1280,15.924C1315.556,21.937,1351.111,38.171,1386.667,48.377C1422.222,58.583,1457.778,62.761,1493.333,63.707C1528.889,64.654,1564.444,62.37,1600,67.706C1635.556,73.041,1671.111,85.997,1706.667,95.332C1742.222,104.668,1777.778,110.383,1813.333,119.33C1848.889,128.278,1884.444,140.458,1902.222,146.548L1920,152.638L1920,540L1902.222,540C1884.444,540,1848.889,540,1813.333,540C1777.778,540,1742.222,540,1706.667,540C1671.111,540,1635.556,540,1600,540C1564.444,540,1528.889,540,1493.333,540C1457.778,540,1422.222,540,1386.667,540C1351.111,540,1315.556,540,1280,540C1244.444,540,1208.889,540,1173.333,540C1137.778,540,1102.222,540,1066.667,540C1031.111,540,995.556,540,960,540C924.444,540,888.889,540,853.333,540C817.778,540,782.222,540,746.667,540C711.111,540,675.556,540,640,540C604.444,540,568.889,540,533.333,540C497.778,540,462.222,540,426.667,540C391.111,540,355.556,540,320,540C284.444,540,248.889,540,213.333,540C177.778,540,142.222,540,106.667,540C71.111,540,35.556,540,17.778,540L0,540Z"></path></g><g transform="translate(0, 720)"><path fill="rgb(177, 207, 222)" fill-opacity="1" d="M0,103.619L17.778,94.893C35.556,86.167,71.111,68.715,106.667,69.15C142.222,69.585,177.778,87.907,213.333,84.997C248.889,82.086,284.444,57.943,320,64.496C355.556,71.048,391.111,108.296,426.667,115.607C462.222,122.919,497.778,100.294,533.333,105.334C568.889,110.375,604.444,143.081,640,156.865C675.556,170.649,711.111,165.512,746.667,151.09C782.222,136.668,817.778,112.961,853.333,111.507C888.889,110.053,924.444,130.85,960,129.142C995.556,127.433,1031.111,103.219,1066.667,93.262C1102.222,83.305,1137.778,87.605,1173.333,78.186C1208.889,68.767,1244.444,45.629,1280,49.394C1315.556,53.158,1351.111,83.826,1386.667,80.117C1422.222,76.409,1457.778,38.324,1493.333,32.484C1528.889,26.643,1564.444,53.047,1600,77.462C1635.556,101.877,1671.111,124.304,1706.667,111.406C1742.222,98.508,1777.778,50.284,1813.333,47.606C1848.889,44.929,1884.444,87.797,1902.222,109.231L1920,130.665L1920,360L1902.222,360C1884.444,360,1848.889,360,1813.333,360C1777.778,360,1742.222,360,1706.667,360C1671.111,360,1635.556,360,1600,360C1564.444,360,1528.889,360,1493.333,360C1457.778,360,1422.222,360,1386.667,360C1351.111,360,1315.556,360,1280,360C1244.444,360,1208.889,360,1173.333,360C1137.778,360,1102.222,360,1066.667,360C1031.111,360,995.556,360,960,360C924.444,360,888.889,360,853.333,360C817.778,360,782.222,360,746.667,360C711.111,360,675.556,360,640,360C604.444,360,568.889,360,533.333,360C497.778,360,462.222,360,426.667,360C391.111,360,355.556,360,320,360C284.444,360,248.889,360,213.333,360C177.778,360,142.222,360,106.667,360C71.111,360,35.556,360,17.778,360L0,360Z"></path></g><g transform="translate(0, 900)"><path fill="rgb(105, 163, 191)" fill-opacity="1" d="M0,42.711L17.778,49.733C35.556,56.755,71.111,70.799,106.667,74.971C142.222,79.144,177.778,73.445,213.333,84.245C248.889,95.046,284.444,122.346,320,113.445C355.556,104.543,391.111,59.44,426.667,56.66C462.222,53.879,497.778,93.42,533.333,106.342C568.889,119.264,604.444,105.567,640,110.502C675.556,115.437,711.111,139.004,746.667,139.331C782.222,139.658,817.778,116.744,853.333,90.97C888.889,65.195,924.444,36.56,960,34.325C995.556,32.09,1031.111,56.256,1066.667,81.196C1102.222,106.136,1137.778,131.851,1173.333,124.575C1208.889,117.299,1244.444,77.032,1280,57.582C1315.556,38.133,1351.111,39.5,1386.667,55.803C1422.222,72.106,1457.778,103.344,1493.333,123.996C1528.889,144.648,1564.444,154.713,1600,147.016C1635.556,139.318,1671.111,113.858,1706.667,111.967C1742.222,110.076,1777.778,131.754,1813.333,131.133C1848.889,130.513,1884.444,107.594,1902.222,96.134L1920,84.674L1920,180L1902.222,180C1884.444,180,1848.889,180,1813.333,180C1777.778,180,1742.222,180,1706.667,180C1671.111,180,1635.556,180,1600,180C1564.444,180,1528.889,180,1493.333,180C1457.778,180,1422.222,180,1386.667,180C1351.111,180,1315.556,180,1280,180C1244.444,180,1208.889,180,1173.333,180C1137.778,180,1102.222,180,1066.667,180C1031.111,180,995.556,180,960,180C924.444,180,888.889,180,853.333,180C817.778,180,782.222,180,746.667,180C711.111,180,675.556,180,640,180C604.444,180,568.889,180,533.333,180C497.778,180,462.222,180,426.667,180C391.111,180,355.556,180,320,180C284.444,180,248.889,180,213.333,180C177.778,180,142.222,180,106.667,180C71.111,180,35.556,180,17.778,180L0,180Z"></path></g></g></svg>